<?xml version="1.0" encoding="utf-8"?>
<!-- Generator: Adobe Illustrator 17.1.0, SVG Export Plug-In . SVG Version: 6.00 Build 0)  -->
<!DOCTYPE svg PUBLIC "-//W3C//DTD SVG 1.1//EN" "http://www.w3.org/Graphics/SVG/1.1/DTD/svg11.dtd">
<svg version="1.1" xmlns="http://www.w3.org/2000/svg" xmlns:xlink="http://www.w3.org/1999/xlink" x="0px" y="0px"
	 viewBox="0 0 597.242 135" enable-background="new 0 0 597.242 135" xml:space="preserve">
<g id="Logo_Dark">
	<g id="Glyph">
	</g>
	<g id="Divshot_Text">
	</g>
</g>
<g id="Logo_Light">
	<g id="Outline">
	</g>
	<g id="Layer_7" opacity="0.6">
	</g>
	<g id="Divshot_Text_5_">
	</g>
</g>
<g id="Logo_Outline_Dark">
	<g id="Layer_44_copy">
	</g>
	<g id="Divshot_Text_1_">
	</g>
</g>
<g id="Logo_Outline_Light">
	<g id="Outline_2_">
		<path fill="#333333" d="M101.744,0h-52.01L0,68.004L49.739,135h52l50.754-66.996L101.744,0z M87.49,112.527l32.982-44.716
			L87.305,23.216l13.973-20.494l48.712,65.274l-48.542,64.075L87.49,112.527z M117.376,67H93.758L76.98,43.475L63.176,24h22.219
			L117.376,67z M76.242,88.52L60.486,67.979l15.756-22.094l15.756,22.094L76.242,88.52z M61.074,24.491L75.016,44.16L57.998,68.021
			l16.991,22.15L59.61,110.832L28.484,67.825L61.074,24.491z M77.043,90.76L93.736,69h23.374l-31.717,43H61.233L77.043,90.76z
			 M50.75,2h48.6L85.714,22H60.445L26.603,67H3.212L50.75,2z M3.23,69h23.637l32.567,45h26.651l13.572,19H50.745L3.23,69z"/>
		<polygon fill="#333333" points="60.944,23 27.242,68 59.242,112 76.242,90 59.242,68 76.242,44.162 		"/>
		<polygon fill="#333333" points="86.242,22.5 119.227,68 85.899,113 101.242,133.5 151.242,68 101.242,1 		"/>
	</g>
	<g id="Divshot_Text_2_">
		<path fill="#333333" d="M233.242,100c-5.165,5.166-12.507,9-21,9h-32V25h32c8.493,0,15.835,2.835,21,8
			c8.838,8.838,9,21.174,9,32.996S242.08,91.163,233.242,100z M224.242,42.216c-3.443-3.788-7.146-5.216-13-5.216h-17v60h17
			c5.854,0,9.557-3.787,13-7.575c4.247-4.706,4-12.93,4-24.178C228.242,53.998,228.489,46.922,224.242,42.216z"/>
		<path fill="#333333" d="M252.242,109V25h14v84H252.242z"/>
		<path fill="#333333" d="M312.242,109h-9l-27-84h14l18,59l18-59h14L312.242,109z"/>
		<path fill="#333333" d="M451.242,109V72h-30v37h-14V25h14v37h30V25h14v84H451.242z"/>
		<path fill="#333333" d="M528.242,100c-5.625,5.624-13.277,9-22,9c-8.723,0-15.376-4.376-21-10c-8.034-8.034-10-16.276-10-32
			s1.966-24.966,10-33c5.624-5.624,12.277-9,21-9c8.723,0,16.375,3.376,22,9c8.033,8.034,9,17.276,9,33S536.275,91.966,528.242,100z
			 M518.242,42c-2.869-3.099-7.18-6-12-6c-4.822,0-9.13,1.901-12,5c-4.017,4.362-5,9.587-5,26s0.983,20.639,5,25
			c2.87,3.1,7.178,5,12,5c4.82,0,9.131-1.9,12-5c4.018-4.361,5-8.587,5-25S522.26,46.362,518.242,42z"/>
		<path fill="#333333" d="M576.242,37v72h-14V37h-21V25h56v12H576.242z"/>
		<path fill="#333333" d="M390.242,67c-3.443-3.099-7.425-4.852-15-6l-9.175-0.995c-3.788-0.574-6.759-2.168-8.825-4.005
			c-2.181-1.951-3.456-4.374-3.456-7.358c0-7.231,5.28-12.74,14.921-12.74c6.887,0,12.74,1.492,17.79,6.313L394.242,34
			c-7.001-6.542-14.211-9-25-9c-8.349,0-15.303,2.914-20,7l-7,22c0.777,4.272,2.07,8.238,5,11c3.558,3.329,9.343,5.082,16,6l10,2
			c4.821,0.689,6.934,1.049,9,3c2.181,1.951,3,5.442,3,9c0,7.919-6.326,12-17,12c-8.379,0-15.03-2.032-20.998-8l-7.002,8
			c7.805,7.919,15.719,12,28,12c17.102,0,29-9.964,29-25C397.242,76.999,394.719,70.902,390.242,67z"/>
	</g>
</g>
<g id="Logo_Text_Light">
	<g id="Divshot_Text_6_">
	</g>
</g>
<g id="Logo_Text_Dark">
	<g id="Divshot_Text_7_">
	</g>
</g>
<g id="Glyph_Quadrant">
	<g id="Light_Gradient">
	</g>
	<g id="Dark_Gradient">
		<g id="Layer_50">
		</g>
	</g>
	<g id="Dark_Outline">
	</g>
	<g id="Light_Outline">
	</g>
</g>
<g id="Logo_Vertical_Dark">
	<g id="Divshot_Text_8_">
	</g>
	<g id="Glyph_3_">
	</g>
</g>
<g id="Logo_Vertical_Light">
	<g id="Divshot_Text_3_">
	</g>
	<g id="Glyph_1_">
	</g>
</g>
<g id="Brand_Colors">
	<g id="White">
	</g>
	<g id="Dark_Grey">
	</g>
	<g id="Black">
	</g>
	<g id="Gold">
	</g>
</g>
<g id="Glyph_Dark">
	<g id="Layer_51">
	</g>
</g>
<g id="Glyph_Light">
</g>
<g id="Glyph_Dark_Outline">
</g>
<g id="Glyph_Light_Outline">
</g>
<g id="Logo_Vertical_Outline_Dark">
	<g id="Divshot_Text_4_">
	</g>
	<g id="Layer_48">
	</g>
</g>
<g id="Divshot_Vertical_Outline_Light">
	<g id="Divshot_Text_9_">
	</g>
	<g id="Glyph_2_">
	</g>
</g>
</svg>
